G04 #@! TF.GenerationSoftware,KiCad,Pcbnew,(5.1.7)-1*
G04 #@! TF.CreationDate,2020-10-01T12:01:24-04:00*
G04 #@! TF.ProjectId,raspberry-pi-ir-hat,72617370-6265-4727-9279-2d70692d6972,rev?*
G04 #@! TF.SameCoordinates,Original*
G04 #@! TF.FileFunction,Soldermask,Top*
G04 #@! TF.FilePolarity,Negative*
%FSLAX46Y46*%
G04 Gerber Fmt 4.6, Leading zero omitted, Abs format (unit mm)*
G04 Created by KiCad (PCBNEW (5.1.7)-1) date 2020-10-01 12:01:24*
%MOMM*%
%LPD*%
G01*
G04 APERTURE LIST*
%ADD10O,1.852400X1.852400*%
%ADD11O,2.152400X2.452400*%
%ADD12C,1.452400*%
%ADD13C,3.152400*%
G04 APERTURE END LIST*
D10*
G04 #@! TO.C,J7*
X143660000Y-133000000D03*
X146200000Y-133000000D03*
X143660000Y-130460000D03*
X146200000Y-130460000D03*
X143660000Y-127920000D03*
X146200000Y-127920000D03*
X143660000Y-125380000D03*
X146200000Y-125380000D03*
X143660000Y-122840000D03*
X146200000Y-122840000D03*
X143660000Y-120300000D03*
X146200000Y-120300000D03*
X143660000Y-117760000D03*
X146200000Y-117760000D03*
X143660000Y-115220000D03*
X146200000Y-115220000D03*
X143660000Y-112680000D03*
X146200000Y-112680000D03*
X143660000Y-110140000D03*
X146200000Y-110140000D03*
X143660000Y-107600000D03*
X146200000Y-107600000D03*
X143660000Y-105060000D03*
X146200000Y-105060000D03*
X143660000Y-102520000D03*
X146200000Y-102520000D03*
X143660000Y-99980000D03*
X146200000Y-99980000D03*
X143660000Y-97440000D03*
X146200000Y-97440000D03*
X143660000Y-94900000D03*
X146200000Y-94900000D03*
X143660000Y-92360000D03*
X146200000Y-92360000D03*
X143660000Y-89820000D03*
X146200000Y-89820000D03*
X143660000Y-87280000D03*
X146200000Y-87280000D03*
X143660000Y-84740000D03*
G36*
G01*
X145273800Y-85590000D02*
X145273800Y-83890000D01*
G75*
G02*
X145350000Y-83813800I76200J0D01*
G01*
X147050000Y-83813800D01*
G75*
G02*
X147126200Y-83890000I0J-76200D01*
G01*
X147126200Y-85590000D01*
G75*
G02*
X147050000Y-85666200I-76200J0D01*
G01*
X145350000Y-85666200D01*
G75*
G02*
X145273800Y-85590000I0J76200D01*
G01*
G37*
G04 #@! TD*
G04 #@! TO.C,J6*
X129760000Y-118160000D03*
G36*
G01*
X130686200Y-119850000D02*
X130686200Y-121550000D01*
G75*
G02*
X130610000Y-121626200I-76200J0D01*
G01*
X128910000Y-121626200D01*
G75*
G02*
X128833800Y-121550000I0J76200D01*
G01*
X128833800Y-119850000D01*
G75*
G02*
X128910000Y-119773800I76200J0D01*
G01*
X130610000Y-119773800D01*
G75*
G02*
X130686200Y-119850000I0J-76200D01*
G01*
G37*
G04 #@! TD*
D11*
G04 #@! TO.C,REF\u002A\u002A*
X131850000Y-79500000D03*
X114550000Y-79500000D03*
G04 #@! TD*
D12*
G04 #@! TO.C,J3*
X128800000Y-152700000D03*
X133800000Y-160200000D03*
X123800000Y-160200000D03*
X133800000Y-157700000D03*
X123800000Y-157700000D03*
D13*
X128800000Y-157700000D03*
X133800000Y-152700000D03*
X123800000Y-152700000D03*
G04 #@! TD*
G04 #@! TO.C,R5*
G36*
G01*
X123780969Y-102863800D02*
X124759031Y-102863800D01*
G75*
G02*
X125046200Y-103150969I0J-287169D01*
G01*
X125046200Y-103754031D01*
G75*
G02*
X124759031Y-104041200I-287169J0D01*
G01*
X123780969Y-104041200D01*
G75*
G02*
X123493800Y-103754031I0J287169D01*
G01*
X123493800Y-103150969D01*
G75*
G02*
X123780969Y-102863800I287169J0D01*
G01*
G37*
G36*
G01*
X123780969Y-101038800D02*
X124759031Y-101038800D01*
G75*
G02*
X125046200Y-101325969I0J-287169D01*
G01*
X125046200Y-101929031D01*
G75*
G02*
X124759031Y-102216200I-287169J0D01*
G01*
X123780969Y-102216200D01*
G75*
G02*
X123493800Y-101929031I0J287169D01*
G01*
X123493800Y-101325969D01*
G75*
G02*
X123780969Y-101038800I287169J0D01*
G01*
G37*
G04 #@! TD*
G04 #@! TO.C,R4*
G36*
G01*
X132489031Y-130676200D02*
X131510969Y-130676200D01*
G75*
G02*
X131223800Y-130389031I0J287169D01*
G01*
X131223800Y-129785969D01*
G75*
G02*
X131510969Y-129498800I287169J0D01*
G01*
X132489031Y-129498800D01*
G75*
G02*
X132776200Y-129785969I0J-287169D01*
G01*
X132776200Y-130389031D01*
G75*
G02*
X132489031Y-130676200I-287169J0D01*
G01*
G37*
G36*
G01*
X132489031Y-132501200D02*
X131510969Y-132501200D01*
G75*
G02*
X131223800Y-132214031I0J287169D01*
G01*
X131223800Y-131610969D01*
G75*
G02*
X131510969Y-131323800I287169J0D01*
G01*
X132489031Y-131323800D01*
G75*
G02*
X132776200Y-131610969I0J-287169D01*
G01*
X132776200Y-132214031D01*
G75*
G02*
X132489031Y-132501200I-287169J0D01*
G01*
G37*
G04 #@! TD*
G04 #@! TO.C,R3*
G36*
G01*
X123689031Y-84976200D02*
X122710969Y-84976200D01*
G75*
G02*
X122423800Y-84689031I0J287169D01*
G01*
X122423800Y-84085969D01*
G75*
G02*
X122710969Y-83798800I287169J0D01*
G01*
X123689031Y-83798800D01*
G75*
G02*
X123976200Y-84085969I0J-287169D01*
G01*
X123976200Y-84689031D01*
G75*
G02*
X123689031Y-84976200I-287169J0D01*
G01*
G37*
G36*
G01*
X123689031Y-86801200D02*
X122710969Y-86801200D01*
G75*
G02*
X122423800Y-86514031I0J287169D01*
G01*
X122423800Y-85910969D01*
G75*
G02*
X122710969Y-85623800I287169J0D01*
G01*
X123689031Y-85623800D01*
G75*
G02*
X123976200Y-85910969I0J-287169D01*
G01*
X123976200Y-86514031D01*
G75*
G02*
X123689031Y-86801200I-287169J0D01*
G01*
G37*
G04 #@! TD*
G04 #@! TO.C,R2*
G36*
G01*
X130185031Y-130676200D02*
X129206969Y-130676200D01*
G75*
G02*
X128919800Y-130389031I0J287169D01*
G01*
X128919800Y-129785969D01*
G75*
G02*
X129206969Y-129498800I287169J0D01*
G01*
X130185031Y-129498800D01*
G75*
G02*
X130472200Y-129785969I0J-287169D01*
G01*
X130472200Y-130389031D01*
G75*
G02*
X130185031Y-130676200I-287169J0D01*
G01*
G37*
G36*
G01*
X130185031Y-132501200D02*
X129206969Y-132501200D01*
G75*
G02*
X128919800Y-132214031I0J287169D01*
G01*
X128919800Y-131610969D01*
G75*
G02*
X129206969Y-131323800I287169J0D01*
G01*
X130185031Y-131323800D01*
G75*
G02*
X130472200Y-131610969I0J-287169D01*
G01*
X130472200Y-132214031D01*
G75*
G02*
X130185031Y-132501200I-287169J0D01*
G01*
G37*
G04 #@! TD*
G04 #@! TO.C,R1*
G36*
G01*
X117589031Y-130676200D02*
X116610969Y-130676200D01*
G75*
G02*
X116323800Y-130389031I0J287169D01*
G01*
X116323800Y-129785969D01*
G75*
G02*
X116610969Y-129498800I287169J0D01*
G01*
X117589031Y-129498800D01*
G75*
G02*
X117876200Y-129785969I0J-287169D01*
G01*
X117876200Y-130389031D01*
G75*
G02*
X117589031Y-130676200I-287169J0D01*
G01*
G37*
G36*
G01*
X117589031Y-132501200D02*
X116610969Y-132501200D01*
G75*
G02*
X116323800Y-132214031I0J287169D01*
G01*
X116323800Y-131610969D01*
G75*
G02*
X116610969Y-131323800I287169J0D01*
G01*
X117589031Y-131323800D01*
G75*
G02*
X117876200Y-131610969I0J-287169D01*
G01*
X117876200Y-132214031D01*
G75*
G02*
X117589031Y-132501200I-287169J0D01*
G01*
G37*
G04 #@! TD*
D12*
G04 #@! TO.C,J2*
X113500000Y-152700000D03*
X118500000Y-160200000D03*
X108500000Y-160200000D03*
X118500000Y-157700000D03*
X108500000Y-157700000D03*
D13*
X113500000Y-157700000D03*
X118500000Y-152700000D03*
X108500000Y-152700000D03*
G04 #@! TD*
G04 #@! TO.C,D3*
G36*
G01*
X124764350Y-105976200D02*
X123775650Y-105976200D01*
G75*
G02*
X123493800Y-105694350I0J281850D01*
G01*
X123493800Y-105130650D01*
G75*
G02*
X123775650Y-104848800I281850J0D01*
G01*
X124764350Y-104848800D01*
G75*
G02*
X125046200Y-105130650I0J-281850D01*
G01*
X125046200Y-105694350D01*
G75*
G02*
X124764350Y-105976200I-281850J0D01*
G01*
G37*
G36*
G01*
X124764350Y-107851200D02*
X123775650Y-107851200D01*
G75*
G02*
X123493800Y-107569350I0J281850D01*
G01*
X123493800Y-107005650D01*
G75*
G02*
X123775650Y-106723800I281850J0D01*
G01*
X124764350Y-106723800D01*
G75*
G02*
X125046200Y-107005650I0J-281850D01*
G01*
X125046200Y-107569350D01*
G75*
G02*
X124764350Y-107851200I-281850J0D01*
G01*
G37*
G04 #@! TD*
G04 #@! TO.C,D2*
G36*
G01*
X127805650Y-81311300D02*
X128794350Y-81311300D01*
G75*
G02*
X129076200Y-81593150I0J-281850D01*
G01*
X129076200Y-82156850D01*
G75*
G02*
X128794350Y-82438700I-281850J0D01*
G01*
X127805650Y-82438700D01*
G75*
G02*
X127523800Y-82156850I0J281850D01*
G01*
X127523800Y-81593150D01*
G75*
G02*
X127805650Y-81311300I281850J0D01*
G01*
G37*
G36*
G01*
X127805650Y-79436300D02*
X128794350Y-79436300D01*
G75*
G02*
X129076200Y-79718150I0J-281850D01*
G01*
X129076200Y-80281850D01*
G75*
G02*
X128794350Y-80563700I-281850J0D01*
G01*
X127805650Y-80563700D01*
G75*
G02*
X127523800Y-80281850I0J281850D01*
G01*
X127523800Y-79718150D01*
G75*
G02*
X127805650Y-79436300I281850J0D01*
G01*
G37*
G04 #@! TD*
G04 #@! TO.C,D1*
G36*
G01*
X122705650Y-81311300D02*
X123694350Y-81311300D01*
G75*
G02*
X123976200Y-81593150I0J-281850D01*
G01*
X123976200Y-82156850D01*
G75*
G02*
X123694350Y-82438700I-281850J0D01*
G01*
X122705650Y-82438700D01*
G75*
G02*
X122423800Y-82156850I0J281850D01*
G01*
X122423800Y-81593150D01*
G75*
G02*
X122705650Y-81311300I281850J0D01*
G01*
G37*
G36*
G01*
X122705650Y-79436300D02*
X123694350Y-79436300D01*
G75*
G02*
X123976200Y-79718150I0J-281850D01*
G01*
X123976200Y-80281850D01*
G75*
G02*
X123694350Y-80563700I-281850J0D01*
G01*
X122705650Y-80563700D01*
G75*
G02*
X122423800Y-80281850I0J281850D01*
G01*
X122423800Y-79718150D01*
G75*
G02*
X122705650Y-79436300I281850J0D01*
G01*
G37*
G04 #@! TD*
G04 #@! TO.C,C1*
G36*
G01*
X126886900Y-131373800D02*
X127913100Y-131373800D01*
G75*
G02*
X128201200Y-131661900I0J-288100D01*
G01*
X128201200Y-132238100D01*
G75*
G02*
X127913100Y-132526200I-288100J0D01*
G01*
X126886900Y-132526200D01*
G75*
G02*
X126598800Y-132238100I0J288100D01*
G01*
X126598800Y-131661900D01*
G75*
G02*
X126886900Y-131373800I288100J0D01*
G01*
G37*
G36*
G01*
X126886900Y-129473800D02*
X127913100Y-129473800D01*
G75*
G02*
X128201200Y-129761900I0J-288100D01*
G01*
X128201200Y-130338100D01*
G75*
G02*
X127913100Y-130626200I-288100J0D01*
G01*
X126886900Y-130626200D01*
G75*
G02*
X126598800Y-130338100I0J288100D01*
G01*
X126598800Y-129761900D01*
G75*
G02*
X126886900Y-129473800I288100J0D01*
G01*
G37*
G04 #@! TD*
G04 #@! TO.C,D4*
G36*
G01*
X117605650Y-81336300D02*
X118594350Y-81336300D01*
G75*
G02*
X118876200Y-81618150I0J-281850D01*
G01*
X118876200Y-82181850D01*
G75*
G02*
X118594350Y-82463700I-281850J0D01*
G01*
X117605650Y-82463700D01*
G75*
G02*
X117323800Y-82181850I0J281850D01*
G01*
X117323800Y-81618150D01*
G75*
G02*
X117605650Y-81336300I281850J0D01*
G01*
G37*
G36*
G01*
X117605650Y-79461300D02*
X118594350Y-79461300D01*
G75*
G02*
X118876200Y-79743150I0J-281850D01*
G01*
X118876200Y-80306850D01*
G75*
G02*
X118594350Y-80588700I-281850J0D01*
G01*
X117605650Y-80588700D01*
G75*
G02*
X117323800Y-80306850I0J281850D01*
G01*
X117323800Y-79743150D01*
G75*
G02*
X117605650Y-79461300I281850J0D01*
G01*
G37*
G04 #@! TD*
G04 #@! TO.C,R6*
G36*
G01*
X118589031Y-84976200D02*
X117610969Y-84976200D01*
G75*
G02*
X117323800Y-84689031I0J287169D01*
G01*
X117323800Y-84085969D01*
G75*
G02*
X117610969Y-83798800I287169J0D01*
G01*
X118589031Y-83798800D01*
G75*
G02*
X118876200Y-84085969I0J-287169D01*
G01*
X118876200Y-84689031D01*
G75*
G02*
X118589031Y-84976200I-287169J0D01*
G01*
G37*
G36*
G01*
X118589031Y-86801200D02*
X117610969Y-86801200D01*
G75*
G02*
X117323800Y-86514031I0J287169D01*
G01*
X117323800Y-85910969D01*
G75*
G02*
X117610969Y-85623800I287169J0D01*
G01*
X118589031Y-85623800D01*
G75*
G02*
X118876200Y-85910969I0J-287169D01*
G01*
X118876200Y-86514031D01*
G75*
G02*
X118589031Y-86801200I-287169J0D01*
G01*
G37*
G04 #@! TD*
G04 #@! TO.C,Q1*
G36*
G01*
X113375000Y-131523800D02*
X114025000Y-131523800D01*
G75*
G02*
X114101200Y-131600000I0J-76200D01*
G01*
X114101200Y-132820000D01*
G75*
G02*
X114025000Y-132896200I-76200J0D01*
G01*
X113375000Y-132896200D01*
G75*
G02*
X113298800Y-132820000I0J76200D01*
G01*
X113298800Y-131600000D01*
G75*
G02*
X113375000Y-131523800I76200J0D01*
G01*
G37*
G36*
G01*
X112425000Y-128903800D02*
X113075000Y-128903800D01*
G75*
G02*
X113151200Y-128980000I0J-76200D01*
G01*
X113151200Y-130200000D01*
G75*
G02*
X113075000Y-130276200I-76200J0D01*
G01*
X112425000Y-130276200D01*
G75*
G02*
X112348800Y-130200000I0J76200D01*
G01*
X112348800Y-128980000D01*
G75*
G02*
X112425000Y-128903800I76200J0D01*
G01*
G37*
G36*
G01*
X114325000Y-128903800D02*
X114975000Y-128903800D01*
G75*
G02*
X115051200Y-128980000I0J-76200D01*
G01*
X115051200Y-130200000D01*
G75*
G02*
X114975000Y-130276200I-76200J0D01*
G01*
X114325000Y-130276200D01*
G75*
G02*
X114248800Y-130200000I0J76200D01*
G01*
X114248800Y-128980000D01*
G75*
G02*
X114325000Y-128903800I76200J0D01*
G01*
G37*
G04 #@! TD*
D10*
G04 #@! TO.C,J1*
X129760000Y-110540000D03*
X129760000Y-108000000D03*
X129760000Y-105460000D03*
X129760000Y-102920000D03*
X129760000Y-100380000D03*
G36*
G01*
X128833800Y-98690000D02*
X128833800Y-96990000D01*
G75*
G02*
X128910000Y-96913800I76200J0D01*
G01*
X130610000Y-96913800D01*
G75*
G02*
X130686200Y-96990000I0J-76200D01*
G01*
X130686200Y-98690000D01*
G75*
G02*
X130610000Y-98766200I-76200J0D01*
G01*
X128910000Y-98766200D01*
G75*
G02*
X128833800Y-98690000I0J76200D01*
G01*
G37*
G04 #@! TD*
G04 #@! TO.C,J4*
X131180000Y-141160000D03*
X131180000Y-143700000D03*
X128640000Y-141160000D03*
X128640000Y-143700000D03*
X126100000Y-141160000D03*
G36*
G01*
X126950000Y-144626200D02*
X125250000Y-144626200D01*
G75*
G02*
X125173800Y-144550000I0J76200D01*
G01*
X125173800Y-142850000D01*
G75*
G02*
X125250000Y-142773800I76200J0D01*
G01*
X126950000Y-142773800D01*
G75*
G02*
X127026200Y-142850000I0J-76200D01*
G01*
X127026200Y-144550000D01*
G75*
G02*
X126950000Y-144626200I-76200J0D01*
G01*
G37*
G04 #@! TD*
G04 #@! TO.C,J5*
X116340000Y-141260000D03*
X116340000Y-143800000D03*
X113800000Y-141260000D03*
G36*
G01*
X114650000Y-144726200D02*
X112950000Y-144726200D01*
G75*
G02*
X112873800Y-144650000I0J76200D01*
G01*
X112873800Y-142950000D01*
G75*
G02*
X112950000Y-142873800I76200J0D01*
G01*
X114650000Y-142873800D01*
G75*
G02*
X114726200Y-142950000I0J-76200D01*
G01*
X114726200Y-144650000D01*
G75*
G02*
X114650000Y-144726200I-76200J0D01*
G01*
G37*
G04 #@! TD*
M02*
