G04 #@! TF.GenerationSoftware,KiCad,Pcbnew,(5.1.7)-1*
G04 #@! TF.CreationDate,2020-10-30T10:20:01-04:00*
G04 #@! TF.ProjectId,raspberry-pi-ir-hat,72617370-6265-4727-9279-2d70692d6972,rev?*
G04 #@! TF.SameCoordinates,Original*
G04 #@! TF.FileFunction,Soldermask,Bot*
G04 #@! TF.FilePolarity,Negative*
%FSLAX46Y46*%
G04 Gerber Fmt 4.6, Leading zero omitted, Abs format (unit mm)*
G04 Created by KiCad (PCBNEW (5.1.7)-1) date 2020-10-30 10:20:01*
%MOMM*%
%LPD*%
G01*
G04 APERTURE LIST*
%ADD10O,1.852400X1.852400*%
%ADD11C,5.152400*%
%ADD12O,2.152400X2.452400*%
%ADD13C,1.452400*%
%ADD14C,3.152400*%
G04 APERTURE END LIST*
D10*
G04 #@! TO.C,P1*
X120540000Y-107420000D03*
X118000000Y-107420000D03*
X120540000Y-104880000D03*
X118000000Y-104880000D03*
X120540000Y-102340000D03*
X118000000Y-102340000D03*
X120540000Y-99800000D03*
G36*
G01*
X117073800Y-100650000D02*
X117073800Y-98950000D01*
G75*
G02*
X117150000Y-98873800I76200J0D01*
G01*
X118850000Y-98873800D01*
G75*
G02*
X118926200Y-98950000I0J-76200D01*
G01*
X118926200Y-100650000D01*
G75*
G02*
X118850000Y-100726200I-76200J0D01*
G01*
X117150000Y-100726200D01*
G75*
G02*
X117073800Y-100650000I0J76200D01*
G01*
G37*
G04 #@! TD*
G04 #@! TO.C,J6*
X134100000Y-131940000D03*
X134100000Y-129400000D03*
X134100000Y-126860000D03*
X134100000Y-124320000D03*
X134100000Y-121780000D03*
G36*
G01*
X133173800Y-120090000D02*
X133173800Y-118390000D01*
G75*
G02*
X133250000Y-118313800I76200J0D01*
G01*
X134950000Y-118313800D01*
G75*
G02*
X135026200Y-118390000I0J-76200D01*
G01*
X135026200Y-120090000D01*
G75*
G02*
X134950000Y-120166200I-76200J0D01*
G01*
X133250000Y-120166200D01*
G75*
G02*
X133173800Y-120090000I0J76200D01*
G01*
G37*
G04 #@! TD*
D11*
G04 #@! TO.C,REF\u002A\u002A*
X135500000Y-90000000D03*
G04 #@! TD*
G04 #@! TO.C,REF\u002A\u002A*
X110500000Y-146000000D03*
G04 #@! TD*
D10*
G04 #@! TO.C,J7*
X143660000Y-133000000D03*
X146200000Y-133000000D03*
X143660000Y-130460000D03*
X146200000Y-130460000D03*
X143660000Y-127920000D03*
X146200000Y-127920000D03*
X143660000Y-125380000D03*
X146200000Y-125380000D03*
X143660000Y-122840000D03*
X146200000Y-122840000D03*
X143660000Y-120300000D03*
X146200000Y-120300000D03*
X143660000Y-117760000D03*
X146200000Y-117760000D03*
X143660000Y-115220000D03*
X146200000Y-115220000D03*
X143660000Y-112680000D03*
X146200000Y-112680000D03*
X143660000Y-110140000D03*
X146200000Y-110140000D03*
X143660000Y-107600000D03*
X146200000Y-107600000D03*
X143660000Y-105060000D03*
X146200000Y-105060000D03*
X143660000Y-102520000D03*
X146200000Y-102520000D03*
X143660000Y-99980000D03*
X146200000Y-99980000D03*
X143660000Y-97440000D03*
X146200000Y-97440000D03*
X143660000Y-94900000D03*
X146200000Y-94900000D03*
X143660000Y-92360000D03*
X146200000Y-92360000D03*
X143660000Y-89820000D03*
X146200000Y-89820000D03*
X143660000Y-87280000D03*
X146200000Y-87280000D03*
X143660000Y-84740000D03*
G36*
G01*
X145273800Y-85590000D02*
X145273800Y-83890000D01*
G75*
G02*
X145350000Y-83813800I76200J0D01*
G01*
X147050000Y-83813800D01*
G75*
G02*
X147126200Y-83890000I0J-76200D01*
G01*
X147126200Y-85590000D01*
G75*
G02*
X147050000Y-85666200I-76200J0D01*
G01*
X145350000Y-85666200D01*
G75*
G02*
X145273800Y-85590000I0J76200D01*
G01*
G37*
G04 #@! TD*
G04 #@! TO.C,J8*
X127000000Y-121720000D03*
G36*
G01*
X127926200Y-123410000D02*
X127926200Y-125110000D01*
G75*
G02*
X127850000Y-125186200I-76200J0D01*
G01*
X126150000Y-125186200D01*
G75*
G02*
X126073800Y-125110000I0J76200D01*
G01*
X126073800Y-123410000D01*
G75*
G02*
X126150000Y-123333800I76200J0D01*
G01*
X127850000Y-123333800D01*
G75*
G02*
X127926200Y-123410000I0J-76200D01*
G01*
G37*
G04 #@! TD*
D12*
G04 #@! TO.C,REF\u002A\u002A*
X131850000Y-79500000D03*
X114550000Y-79500000D03*
G04 #@! TD*
D13*
G04 #@! TO.C,J1*
X128800000Y-152200000D03*
X133800000Y-159700000D03*
X123800000Y-159700000D03*
X133800000Y-157200000D03*
X123800000Y-157200000D03*
D14*
X128800000Y-157200000D03*
X133800000Y-152200000D03*
X123800000Y-152200000D03*
G04 #@! TD*
D13*
G04 #@! TO.C,J2*
X113500000Y-152200000D03*
X118500000Y-159700000D03*
X108500000Y-159700000D03*
X118500000Y-157200000D03*
X108500000Y-157200000D03*
D14*
X113500000Y-157200000D03*
X118500000Y-152200000D03*
X108500000Y-152200000D03*
G04 #@! TD*
D10*
G04 #@! TO.C,J3*
X131180000Y-141160000D03*
X131180000Y-143700000D03*
X128640000Y-141160000D03*
X128640000Y-143700000D03*
X126100000Y-141160000D03*
G36*
G01*
X126950000Y-144626200D02*
X125250000Y-144626200D01*
G75*
G02*
X125173800Y-144550000I0J76200D01*
G01*
X125173800Y-142850000D01*
G75*
G02*
X125250000Y-142773800I76200J0D01*
G01*
X126950000Y-142773800D01*
G75*
G02*
X127026200Y-142850000I0J-76200D01*
G01*
X127026200Y-144550000D01*
G75*
G02*
X126950000Y-144626200I-76200J0D01*
G01*
G37*
G04 #@! TD*
G04 #@! TO.C,J4*
X118740000Y-141160000D03*
X118740000Y-143700000D03*
X116200000Y-141160000D03*
G36*
G01*
X117050000Y-144626200D02*
X115350000Y-144626200D01*
G75*
G02*
X115273800Y-144550000I0J76200D01*
G01*
X115273800Y-142850000D01*
G75*
G02*
X115350000Y-142773800I76200J0D01*
G01*
X117050000Y-142773800D01*
G75*
G02*
X117126200Y-142850000I0J-76200D01*
G01*
X117126200Y-144550000D01*
G75*
G02*
X117050000Y-144626200I-76200J0D01*
G01*
G37*
G04 #@! TD*
M02*
