G04 #@! TF.GenerationSoftware,KiCad,Pcbnew,(5.1.7)-1*
G04 #@! TF.CreationDate,2020-10-30T10:20:01-04:00*
G04 #@! TF.ProjectId,raspberry-pi-ir-hat,72617370-6265-4727-9279-2d70692d6972,rev?*
G04 #@! TF.SameCoordinates,Original*
G04 #@! TF.FileFunction,Legend,Bot*
G04 #@! TF.FilePolarity,Positive*
%FSLAX46Y46*%
G04 Gerber Fmt 4.6, Leading zero omitted, Abs format (unit mm)*
G04 Created by KiCad (PCBNEW (5.1.7)-1) date 2020-10-30 10:20:01*
%MOMM*%
%LPD*%
G01*
G04 APERTURE LIST*
%ADD10C,0.150000*%
G04 APERTURE END LIST*
D10*
X108047619Y-134514285D02*
X108523809Y-134847619D01*
X108047619Y-135085714D02*
X109047619Y-135085714D01*
X109047619Y-134704761D01*
X109000000Y-134609523D01*
X108952380Y-134561904D01*
X108857142Y-134514285D01*
X108714285Y-134514285D01*
X108619047Y-134561904D01*
X108571428Y-134609523D01*
X108523809Y-134704761D01*
X108523809Y-135085714D01*
X108047619Y-133657142D02*
X108571428Y-133657142D01*
X108666666Y-133704761D01*
X108714285Y-133800000D01*
X108714285Y-133990476D01*
X108666666Y-134085714D01*
X108095238Y-133657142D02*
X108047619Y-133752380D01*
X108047619Y-133990476D01*
X108095238Y-134085714D01*
X108190476Y-134133333D01*
X108285714Y-134133333D01*
X108380952Y-134085714D01*
X108428571Y-133990476D01*
X108428571Y-133752380D01*
X108476190Y-133657142D01*
X108095238Y-133228571D02*
X108047619Y-133133333D01*
X108047619Y-132942857D01*
X108095238Y-132847619D01*
X108190476Y-132800000D01*
X108238095Y-132800000D01*
X108333333Y-132847619D01*
X108380952Y-132942857D01*
X108380952Y-133085714D01*
X108428571Y-133180952D01*
X108523809Y-133228571D01*
X108571428Y-133228571D01*
X108666666Y-133180952D01*
X108714285Y-133085714D01*
X108714285Y-132942857D01*
X108666666Y-132847619D01*
X108714285Y-132371428D02*
X107714285Y-132371428D01*
X108666666Y-132371428D02*
X108714285Y-132276190D01*
X108714285Y-132085714D01*
X108666666Y-131990476D01*
X108619047Y-131942857D01*
X108523809Y-131895238D01*
X108238095Y-131895238D01*
X108142857Y-131942857D01*
X108095238Y-131990476D01*
X108047619Y-132085714D01*
X108047619Y-132276190D01*
X108095238Y-132371428D01*
X108047619Y-131466666D02*
X109047619Y-131466666D01*
X108666666Y-131466666D02*
X108714285Y-131371428D01*
X108714285Y-131180952D01*
X108666666Y-131085714D01*
X108619047Y-131038095D01*
X108523809Y-130990476D01*
X108238095Y-130990476D01*
X108142857Y-131038095D01*
X108095238Y-131085714D01*
X108047619Y-131180952D01*
X108047619Y-131371428D01*
X108095238Y-131466666D01*
X108095238Y-130180952D02*
X108047619Y-130276190D01*
X108047619Y-130466666D01*
X108095238Y-130561904D01*
X108190476Y-130609523D01*
X108571428Y-130609523D01*
X108666666Y-130561904D01*
X108714285Y-130466666D01*
X108714285Y-130276190D01*
X108666666Y-130180952D01*
X108571428Y-130133333D01*
X108476190Y-130133333D01*
X108380952Y-130609523D01*
X108047619Y-129704761D02*
X108714285Y-129704761D01*
X108523809Y-129704761D02*
X108619047Y-129657142D01*
X108666666Y-129609523D01*
X108714285Y-129514285D01*
X108714285Y-129419047D01*
X108047619Y-129085714D02*
X108714285Y-129085714D01*
X108523809Y-129085714D02*
X108619047Y-129038095D01*
X108666666Y-128990476D01*
X108714285Y-128895238D01*
X108714285Y-128800000D01*
X108714285Y-128561904D02*
X108047619Y-128323809D01*
X108714285Y-128085714D02*
X108047619Y-128323809D01*
X107809523Y-128419047D01*
X107761904Y-128466666D01*
X107714285Y-128561904D01*
X108047619Y-126942857D02*
X109047619Y-126942857D01*
X109047619Y-126561904D01*
X109000000Y-126466666D01*
X108952380Y-126419047D01*
X108857142Y-126371428D01*
X108714285Y-126371428D01*
X108619047Y-126419047D01*
X108571428Y-126466666D01*
X108523809Y-126561904D01*
X108523809Y-126942857D01*
X108047619Y-125942857D02*
X109047619Y-125942857D01*
X108047619Y-124704761D02*
X109047619Y-124704761D01*
X108047619Y-123657142D02*
X108523809Y-123990476D01*
X108047619Y-124228571D02*
X109047619Y-124228571D01*
X109047619Y-123847619D01*
X109000000Y-123752380D01*
X108952380Y-123704761D01*
X108857142Y-123657142D01*
X108714285Y-123657142D01*
X108619047Y-123704761D01*
X108571428Y-123752380D01*
X108523809Y-123847619D01*
X108523809Y-124228571D01*
X109047619Y-122609523D02*
X109047619Y-122038095D01*
X108047619Y-122323809D02*
X109047619Y-122323809D01*
X108047619Y-121800000D02*
X108714285Y-121276190D01*
X108714285Y-121800000D02*
X108047619Y-121276190D01*
X109095238Y-120180952D02*
X107809523Y-121038095D01*
X108047619Y-119276190D02*
X108523809Y-119609523D01*
X108047619Y-119847619D02*
X109047619Y-119847619D01*
X109047619Y-119466666D01*
X109000000Y-119371428D01*
X108952380Y-119323809D01*
X108857142Y-119276190D01*
X108714285Y-119276190D01*
X108619047Y-119323809D01*
X108571428Y-119371428D01*
X108523809Y-119466666D01*
X108523809Y-119847619D01*
X108047619Y-118942857D02*
X108714285Y-118419047D01*
X108714285Y-118942857D02*
X108047619Y-118419047D01*
M02*
