M48
; DRILL file {KiCad (5.1.7)-1} date 10/01/20 13:33:09
; FORMAT={-:-/ absolute / inch / decimal}
; #@! TF.CreationDate,2020-10-01T13:33:09-04:00
; #@! TF.GenerationSoftware,Kicad,Pcbnew,(5.1.7)-1
FMAT,2
INCH
T1C0.0100
T2C0.0394
T3C0.0472
T4C0.0669
T5C0.0787
%
G90
G05
T1
X4.2874Y-5.748
X4.374Y-3.1693
X4.4134Y-4.9764
X4.5236Y-3.5827
X4.6772Y-4.3425
X4.7362Y-3.6654
X4.7559Y-3.3386
X4.7559Y-3.4488
X4.7717Y-5.8819
X4.7874Y-5.2441
X4.7953Y-4.3425
X4.8937Y-4.2795
X4.9291Y-4.9528
X5.0157Y-5.2677
X5.0512Y-3.3386
X5.0512Y-3.4488
X5.1929Y-3.6654
X5.3346Y-3.1378
X5.3622Y-5.0827
X5.3858Y-3.4961
X5.4488Y-4.9488
X5.4528Y-4.315
X5.5315Y-4.2087
X5.5354Y-3.1417
T2
X4.9646Y-5.5575
X4.9646Y-5.6575
X5.0646Y-5.5575
X5.0646Y-5.6575
X5.1646Y-5.5575
X5.1646Y-5.6575
X5.1087Y-3.852
X5.1087Y-3.952
X5.1087Y-4.052
X5.1087Y-4.152
X5.1087Y-4.252
X5.1087Y-4.352
X4.4803Y-5.5614
X4.4803Y-5.6614
X4.5803Y-5.5614
X4.5803Y-5.6614
X5.1087Y-4.652
X5.1087Y-4.752
X5.6559Y-3.3362
X5.6559Y-3.4362
X5.6559Y-3.5362
X5.6559Y-3.6362
X5.6559Y-3.7362
X5.6559Y-3.8362
X5.6559Y-3.9362
X5.6559Y-4.0362
X5.6559Y-4.1362
X5.6559Y-4.2362
X5.6559Y-4.3362
X5.6559Y-4.4362
X5.6559Y-4.5362
X5.6559Y-4.6362
X5.6559Y-4.7362
X5.6559Y-4.8362
X5.6559Y-4.9362
X5.6559Y-5.0362
X5.6559Y-5.1362
X5.6559Y-5.2362
X5.7559Y-3.3362
X5.7559Y-3.4362
X5.7559Y-3.5362
X5.7559Y-3.6362
X5.7559Y-3.7362
X5.7559Y-3.8362
X5.7559Y-3.9362
X5.7559Y-4.0362
X5.7559Y-4.1362
X5.7559Y-4.2362
X5.7559Y-4.3362
X5.7559Y-4.4362
X5.7559Y-4.5362
X5.7559Y-4.6362
X5.7559Y-4.7362
X5.7559Y-4.8362
X5.7559Y-4.9362
X5.7559Y-5.0362
X5.7559Y-5.1362
X5.7559Y-5.2362
T3
X4.2717Y-6.2087
X4.2717Y-6.3071
X4.4685Y-6.0118
X4.6654Y-6.2087
X4.6654Y-6.3071
X4.874Y-6.2087
X4.874Y-6.3071
X5.0709Y-6.0118
X5.2677Y-6.2087
X5.2677Y-6.3071
T4
X4.2717Y-6.0118
X4.4685Y-6.2087
X4.6654Y-6.0118
X4.874Y-6.0118
X5.0709Y-6.2087
X5.2677Y-6.0118
T5
G00X4.5098Y-3.1358
M15
G01X4.5098Y-3.124
M16
G05
G00X5.1909Y-3.1358
M15
G01X5.1909Y-3.124
M16
G05
T0
M30
