G04 #@! TF.GenerationSoftware,KiCad,Pcbnew,(5.1.7)-1*
G04 #@! TF.CreationDate,2020-10-30T10:20:01-04:00*
G04 #@! TF.ProjectId,raspberry-pi-ir-hat,72617370-6265-4727-9279-2d70692d6972,rev?*
G04 #@! TF.SameCoordinates,Original*
G04 #@! TF.FileFunction,Soldermask,Top*
G04 #@! TF.FilePolarity,Negative*
%FSLAX46Y46*%
G04 Gerber Fmt 4.6, Leading zero omitted, Abs format (unit mm)*
G04 Created by KiCad (PCBNEW (5.1.7)-1) date 2020-10-30 10:20:01*
%MOMM*%
%LPD*%
G01*
G04 APERTURE LIST*
%ADD10O,1.852400X1.852400*%
%ADD11C,5.152400*%
%ADD12O,2.152400X2.452400*%
%ADD13C,1.452400*%
%ADD14C,3.152400*%
%ADD15C,0.100000*%
G04 APERTURE END LIST*
D10*
G04 #@! TO.C,P1*
X120540000Y-107420000D03*
X118000000Y-107420000D03*
X120540000Y-104880000D03*
X118000000Y-104880000D03*
X120540000Y-102340000D03*
X118000000Y-102340000D03*
X120540000Y-99800000D03*
G36*
G01*
X117073800Y-100650000D02*
X117073800Y-98950000D01*
G75*
G02*
X117150000Y-98873800I76200J0D01*
G01*
X118850000Y-98873800D01*
G75*
G02*
X118926200Y-98950000I0J-76200D01*
G01*
X118926200Y-100650000D01*
G75*
G02*
X118850000Y-100726200I-76200J0D01*
G01*
X117150000Y-100726200D01*
G75*
G02*
X117073800Y-100650000I0J76200D01*
G01*
G37*
G04 #@! TD*
G04 #@! TO.C,J6*
X134100000Y-131940000D03*
X134100000Y-129400000D03*
X134100000Y-126860000D03*
X134100000Y-124320000D03*
X134100000Y-121780000D03*
G36*
G01*
X133173800Y-120090000D02*
X133173800Y-118390000D01*
G75*
G02*
X133250000Y-118313800I76200J0D01*
G01*
X134950000Y-118313800D01*
G75*
G02*
X135026200Y-118390000I0J-76200D01*
G01*
X135026200Y-120090000D01*
G75*
G02*
X134950000Y-120166200I-76200J0D01*
G01*
X133250000Y-120166200D01*
G75*
G02*
X133173800Y-120090000I0J76200D01*
G01*
G37*
G04 #@! TD*
G04 #@! TO.C,R6*
G36*
G01*
X130963700Y-96410969D02*
X130963700Y-97389031D01*
G75*
G02*
X130676531Y-97676200I-287169J0D01*
G01*
X130073469Y-97676200D01*
G75*
G02*
X129786300Y-97389031I0J287169D01*
G01*
X129786300Y-96410969D01*
G75*
G02*
X130073469Y-96123800I287169J0D01*
G01*
X130676531Y-96123800D01*
G75*
G02*
X130963700Y-96410969I0J-287169D01*
G01*
G37*
G36*
G01*
X132788700Y-96410969D02*
X132788700Y-97389031D01*
G75*
G02*
X132501531Y-97676200I-287169J0D01*
G01*
X131898469Y-97676200D01*
G75*
G02*
X131611300Y-97389031I0J287169D01*
G01*
X131611300Y-96410969D01*
G75*
G02*
X131898469Y-96123800I287169J0D01*
G01*
X132501531Y-96123800D01*
G75*
G02*
X132788700Y-96410969I0J-287169D01*
G01*
G37*
G04 #@! TD*
G04 #@! TO.C,R5*
G36*
G01*
X137676200Y-99210969D02*
X137676200Y-100189031D01*
G75*
G02*
X137389031Y-100476200I-287169J0D01*
G01*
X136785969Y-100476200D01*
G75*
G02*
X136498800Y-100189031I0J287169D01*
G01*
X136498800Y-99210969D01*
G75*
G02*
X136785969Y-98923800I287169J0D01*
G01*
X137389031Y-98923800D01*
G75*
G02*
X137676200Y-99210969I0J-287169D01*
G01*
G37*
G36*
G01*
X139501200Y-99210969D02*
X139501200Y-100189031D01*
G75*
G02*
X139214031Y-100476200I-287169J0D01*
G01*
X138610969Y-100476200D01*
G75*
G02*
X138323800Y-100189031I0J287169D01*
G01*
X138323800Y-99210969D01*
G75*
G02*
X138610969Y-98923800I287169J0D01*
G01*
X139214031Y-98923800D01*
G75*
G02*
X139501200Y-99210969I0J-287169D01*
G01*
G37*
G04 #@! TD*
G04 #@! TO.C,U1*
G36*
G01*
X134676200Y-104925000D02*
X134676200Y-105325000D01*
G75*
G02*
X134600000Y-105401200I-76200J0D01*
G01*
X133600000Y-105401200D01*
G75*
G02*
X133523800Y-105325000I0J76200D01*
G01*
X133523800Y-104925000D01*
G75*
G02*
X133600000Y-104848800I76200J0D01*
G01*
X134600000Y-104848800D01*
G75*
G02*
X134676200Y-104925000I0J-76200D01*
G01*
G37*
G36*
G01*
X134676200Y-104275000D02*
X134676200Y-104675000D01*
G75*
G02*
X134600000Y-104751200I-76200J0D01*
G01*
X133600000Y-104751200D01*
G75*
G02*
X133523800Y-104675000I0J76200D01*
G01*
X133523800Y-104275000D01*
G75*
G02*
X133600000Y-104198800I76200J0D01*
G01*
X134600000Y-104198800D01*
G75*
G02*
X134676200Y-104275000I0J-76200D01*
G01*
G37*
G36*
G01*
X134676200Y-103625000D02*
X134676200Y-104025000D01*
G75*
G02*
X134600000Y-104101200I-76200J0D01*
G01*
X133600000Y-104101200D01*
G75*
G02*
X133523800Y-104025000I0J76200D01*
G01*
X133523800Y-103625000D01*
G75*
G02*
X133600000Y-103548800I76200J0D01*
G01*
X134600000Y-103548800D01*
G75*
G02*
X134676200Y-103625000I0J-76200D01*
G01*
G37*
G36*
G01*
X134676200Y-102975000D02*
X134676200Y-103375000D01*
G75*
G02*
X134600000Y-103451200I-76200J0D01*
G01*
X133600000Y-103451200D01*
G75*
G02*
X133523800Y-103375000I0J76200D01*
G01*
X133523800Y-102975000D01*
G75*
G02*
X133600000Y-102898800I76200J0D01*
G01*
X134600000Y-102898800D01*
G75*
G02*
X134676200Y-102975000I0J-76200D01*
G01*
G37*
G36*
G01*
X134676200Y-102325000D02*
X134676200Y-102725000D01*
G75*
G02*
X134600000Y-102801200I-76200J0D01*
G01*
X133600000Y-102801200D01*
G75*
G02*
X133523800Y-102725000I0J76200D01*
G01*
X133523800Y-102325000D01*
G75*
G02*
X133600000Y-102248800I76200J0D01*
G01*
X134600000Y-102248800D01*
G75*
G02*
X134676200Y-102325000I0J-76200D01*
G01*
G37*
G36*
G01*
X134676200Y-101675000D02*
X134676200Y-102075000D01*
G75*
G02*
X134600000Y-102151200I-76200J0D01*
G01*
X133600000Y-102151200D01*
G75*
G02*
X133523800Y-102075000I0J76200D01*
G01*
X133523800Y-101675000D01*
G75*
G02*
X133600000Y-101598800I76200J0D01*
G01*
X134600000Y-101598800D01*
G75*
G02*
X134676200Y-101675000I0J-76200D01*
G01*
G37*
G36*
G01*
X134676200Y-101025000D02*
X134676200Y-101425000D01*
G75*
G02*
X134600000Y-101501200I-76200J0D01*
G01*
X133600000Y-101501200D01*
G75*
G02*
X133523800Y-101425000I0J76200D01*
G01*
X133523800Y-101025000D01*
G75*
G02*
X133600000Y-100948800I76200J0D01*
G01*
X134600000Y-100948800D01*
G75*
G02*
X134676200Y-101025000I0J-76200D01*
G01*
G37*
G36*
G01*
X134676200Y-100375000D02*
X134676200Y-100775000D01*
G75*
G02*
X134600000Y-100851200I-76200J0D01*
G01*
X133600000Y-100851200D01*
G75*
G02*
X133523800Y-100775000I0J76200D01*
G01*
X133523800Y-100375000D01*
G75*
G02*
X133600000Y-100298800I76200J0D01*
G01*
X134600000Y-100298800D01*
G75*
G02*
X134676200Y-100375000I0J-76200D01*
G01*
G37*
G36*
G01*
X134676200Y-99725000D02*
X134676200Y-100125000D01*
G75*
G02*
X134600000Y-100201200I-76200J0D01*
G01*
X133600000Y-100201200D01*
G75*
G02*
X133523800Y-100125000I0J76200D01*
G01*
X133523800Y-99725000D01*
G75*
G02*
X133600000Y-99648800I76200J0D01*
G01*
X134600000Y-99648800D01*
G75*
G02*
X134676200Y-99725000I0J-76200D01*
G01*
G37*
G36*
G01*
X134676200Y-99075000D02*
X134676200Y-99475000D01*
G75*
G02*
X134600000Y-99551200I-76200J0D01*
G01*
X133600000Y-99551200D01*
G75*
G02*
X133523800Y-99475000I0J76200D01*
G01*
X133523800Y-99075000D01*
G75*
G02*
X133600000Y-98998800I76200J0D01*
G01*
X134600000Y-98998800D01*
G75*
G02*
X134676200Y-99075000I0J-76200D01*
G01*
G37*
G36*
G01*
X128876200Y-99075000D02*
X128876200Y-99475000D01*
G75*
G02*
X128800000Y-99551200I-76200J0D01*
G01*
X127800000Y-99551200D01*
G75*
G02*
X127723800Y-99475000I0J76200D01*
G01*
X127723800Y-99075000D01*
G75*
G02*
X127800000Y-98998800I76200J0D01*
G01*
X128800000Y-98998800D01*
G75*
G02*
X128876200Y-99075000I0J-76200D01*
G01*
G37*
G36*
G01*
X128876200Y-99725000D02*
X128876200Y-100125000D01*
G75*
G02*
X128800000Y-100201200I-76200J0D01*
G01*
X127800000Y-100201200D01*
G75*
G02*
X127723800Y-100125000I0J76200D01*
G01*
X127723800Y-99725000D01*
G75*
G02*
X127800000Y-99648800I76200J0D01*
G01*
X128800000Y-99648800D01*
G75*
G02*
X128876200Y-99725000I0J-76200D01*
G01*
G37*
G36*
G01*
X128876200Y-100375000D02*
X128876200Y-100775000D01*
G75*
G02*
X128800000Y-100851200I-76200J0D01*
G01*
X127800000Y-100851200D01*
G75*
G02*
X127723800Y-100775000I0J76200D01*
G01*
X127723800Y-100375000D01*
G75*
G02*
X127800000Y-100298800I76200J0D01*
G01*
X128800000Y-100298800D01*
G75*
G02*
X128876200Y-100375000I0J-76200D01*
G01*
G37*
G36*
G01*
X128876200Y-101025000D02*
X128876200Y-101425000D01*
G75*
G02*
X128800000Y-101501200I-76200J0D01*
G01*
X127800000Y-101501200D01*
G75*
G02*
X127723800Y-101425000I0J76200D01*
G01*
X127723800Y-101025000D01*
G75*
G02*
X127800000Y-100948800I76200J0D01*
G01*
X128800000Y-100948800D01*
G75*
G02*
X128876200Y-101025000I0J-76200D01*
G01*
G37*
G36*
G01*
X128876200Y-101675000D02*
X128876200Y-102075000D01*
G75*
G02*
X128800000Y-102151200I-76200J0D01*
G01*
X127800000Y-102151200D01*
G75*
G02*
X127723800Y-102075000I0J76200D01*
G01*
X127723800Y-101675000D01*
G75*
G02*
X127800000Y-101598800I76200J0D01*
G01*
X128800000Y-101598800D01*
G75*
G02*
X128876200Y-101675000I0J-76200D01*
G01*
G37*
G36*
G01*
X128876200Y-102325000D02*
X128876200Y-102725000D01*
G75*
G02*
X128800000Y-102801200I-76200J0D01*
G01*
X127800000Y-102801200D01*
G75*
G02*
X127723800Y-102725000I0J76200D01*
G01*
X127723800Y-102325000D01*
G75*
G02*
X127800000Y-102248800I76200J0D01*
G01*
X128800000Y-102248800D01*
G75*
G02*
X128876200Y-102325000I0J-76200D01*
G01*
G37*
G36*
G01*
X128876200Y-102975000D02*
X128876200Y-103375000D01*
G75*
G02*
X128800000Y-103451200I-76200J0D01*
G01*
X127800000Y-103451200D01*
G75*
G02*
X127723800Y-103375000I0J76200D01*
G01*
X127723800Y-102975000D01*
G75*
G02*
X127800000Y-102898800I76200J0D01*
G01*
X128800000Y-102898800D01*
G75*
G02*
X128876200Y-102975000I0J-76200D01*
G01*
G37*
G36*
G01*
X128876200Y-103625000D02*
X128876200Y-104025000D01*
G75*
G02*
X128800000Y-104101200I-76200J0D01*
G01*
X127800000Y-104101200D01*
G75*
G02*
X127723800Y-104025000I0J76200D01*
G01*
X127723800Y-103625000D01*
G75*
G02*
X127800000Y-103548800I76200J0D01*
G01*
X128800000Y-103548800D01*
G75*
G02*
X128876200Y-103625000I0J-76200D01*
G01*
G37*
G36*
G01*
X128876200Y-104275000D02*
X128876200Y-104675000D01*
G75*
G02*
X128800000Y-104751200I-76200J0D01*
G01*
X127800000Y-104751200D01*
G75*
G02*
X127723800Y-104675000I0J76200D01*
G01*
X127723800Y-104275000D01*
G75*
G02*
X127800000Y-104198800I76200J0D01*
G01*
X128800000Y-104198800D01*
G75*
G02*
X128876200Y-104275000I0J-76200D01*
G01*
G37*
G36*
G01*
X128876200Y-104925000D02*
X128876200Y-105325000D01*
G75*
G02*
X128800000Y-105401200I-76200J0D01*
G01*
X127800000Y-105401200D01*
G75*
G02*
X127723800Y-105325000I0J76200D01*
G01*
X127723800Y-104925000D01*
G75*
G02*
X127800000Y-104848800I76200J0D01*
G01*
X128800000Y-104848800D01*
G75*
G02*
X128876200Y-104925000I0J-76200D01*
G01*
G37*
G04 #@! TD*
G04 #@! TO.C,C2*
G36*
G01*
X137613100Y-102526200D02*
X136586900Y-102526200D01*
G75*
G02*
X136298800Y-102238100I0J288100D01*
G01*
X136298800Y-101661900D01*
G75*
G02*
X136586900Y-101373800I288100J0D01*
G01*
X137613100Y-101373800D01*
G75*
G02*
X137901200Y-101661900I0J-288100D01*
G01*
X137901200Y-102238100D01*
G75*
G02*
X137613100Y-102526200I-288100J0D01*
G01*
G37*
G36*
G01*
X137613100Y-104426200D02*
X136586900Y-104426200D01*
G75*
G02*
X136298800Y-104138100I0J288100D01*
G01*
X136298800Y-103561900D01*
G75*
G02*
X136586900Y-103273800I288100J0D01*
G01*
X137613100Y-103273800D01*
G75*
G02*
X137901200Y-103561900I0J-288100D01*
G01*
X137901200Y-104138100D01*
G75*
G02*
X137613100Y-104426200I-288100J0D01*
G01*
G37*
G04 #@! TD*
D11*
G04 #@! TO.C,REF\u002A\u002A*
X135500000Y-90000000D03*
G04 #@! TD*
G04 #@! TO.C,REF\u002A\u002A*
X110500000Y-146000000D03*
G04 #@! TD*
D10*
G04 #@! TO.C,J7*
X143660000Y-133000000D03*
X146200000Y-133000000D03*
X143660000Y-130460000D03*
X146200000Y-130460000D03*
X143660000Y-127920000D03*
X146200000Y-127920000D03*
X143660000Y-125380000D03*
X146200000Y-125380000D03*
X143660000Y-122840000D03*
X146200000Y-122840000D03*
X143660000Y-120300000D03*
X146200000Y-120300000D03*
X143660000Y-117760000D03*
X146200000Y-117760000D03*
X143660000Y-115220000D03*
X146200000Y-115220000D03*
X143660000Y-112680000D03*
X146200000Y-112680000D03*
X143660000Y-110140000D03*
X146200000Y-110140000D03*
X143660000Y-107600000D03*
X146200000Y-107600000D03*
X143660000Y-105060000D03*
X146200000Y-105060000D03*
X143660000Y-102520000D03*
X146200000Y-102520000D03*
X143660000Y-99980000D03*
X146200000Y-99980000D03*
X143660000Y-97440000D03*
X146200000Y-97440000D03*
X143660000Y-94900000D03*
X146200000Y-94900000D03*
X143660000Y-92360000D03*
X146200000Y-92360000D03*
X143660000Y-89820000D03*
X146200000Y-89820000D03*
X143660000Y-87280000D03*
X146200000Y-87280000D03*
X143660000Y-84740000D03*
G36*
G01*
X145273800Y-85590000D02*
X145273800Y-83890000D01*
G75*
G02*
X145350000Y-83813800I76200J0D01*
G01*
X147050000Y-83813800D01*
G75*
G02*
X147126200Y-83890000I0J-76200D01*
G01*
X147126200Y-85590000D01*
G75*
G02*
X147050000Y-85666200I-76200J0D01*
G01*
X145350000Y-85666200D01*
G75*
G02*
X145273800Y-85590000I0J76200D01*
G01*
G37*
G04 #@! TD*
G04 #@! TO.C,J8*
X127000000Y-121720000D03*
G36*
G01*
X127926200Y-123410000D02*
X127926200Y-125110000D01*
G75*
G02*
X127850000Y-125186200I-76200J0D01*
G01*
X126150000Y-125186200D01*
G75*
G02*
X126073800Y-125110000I0J76200D01*
G01*
X126073800Y-123410000D01*
G75*
G02*
X126150000Y-123333800I76200J0D01*
G01*
X127850000Y-123333800D01*
G75*
G02*
X127926200Y-123410000I0J-76200D01*
G01*
G37*
G04 #@! TD*
D12*
G04 #@! TO.C,REF\u002A\u002A*
X131850000Y-79500000D03*
X114550000Y-79500000D03*
G04 #@! TD*
D13*
G04 #@! TO.C,J1*
X128800000Y-152200000D03*
X133800000Y-159700000D03*
X123800000Y-159700000D03*
X133800000Y-157200000D03*
X123800000Y-157200000D03*
D14*
X128800000Y-157200000D03*
X133800000Y-152200000D03*
X123800000Y-152200000D03*
G04 #@! TD*
G04 #@! TO.C,R2*
G36*
G01*
X128759032Y-84923700D02*
X127780968Y-84923700D01*
G75*
G02*
X127493800Y-84636532I0J287168D01*
G01*
X127493800Y-84033468D01*
G75*
G02*
X127780968Y-83746300I287168J0D01*
G01*
X128759032Y-83746300D01*
G75*
G02*
X129046200Y-84033468I0J-287168D01*
G01*
X129046200Y-84636532D01*
G75*
G02*
X128759032Y-84923700I-287168J0D01*
G01*
G37*
G36*
G01*
X128759032Y-86748700D02*
X127780968Y-86748700D01*
G75*
G02*
X127493800Y-86461532I0J287168D01*
G01*
X127493800Y-85858468D01*
G75*
G02*
X127780968Y-85571300I287168J0D01*
G01*
X128759032Y-85571300D01*
G75*
G02*
X129046200Y-85858468I0J-287168D01*
G01*
X129046200Y-86461532D01*
G75*
G02*
X128759032Y-86748700I-287168J0D01*
G01*
G37*
G04 #@! TD*
G04 #@! TO.C,R3*
G36*
G01*
X123689032Y-84976200D02*
X122710968Y-84976200D01*
G75*
G02*
X122423800Y-84689032I0J287168D01*
G01*
X122423800Y-84085968D01*
G75*
G02*
X122710968Y-83798800I287168J0D01*
G01*
X123689032Y-83798800D01*
G75*
G02*
X123976200Y-84085968I0J-287168D01*
G01*
X123976200Y-84689032D01*
G75*
G02*
X123689032Y-84976200I-287168J0D01*
G01*
G37*
G36*
G01*
X123689032Y-86801200D02*
X122710968Y-86801200D01*
G75*
G02*
X122423800Y-86514032I0J287168D01*
G01*
X122423800Y-85910968D01*
G75*
G02*
X122710968Y-85623800I287168J0D01*
G01*
X123689032Y-85623800D01*
G75*
G02*
X123976200Y-85910968I0J-287168D01*
G01*
X123976200Y-86514032D01*
G75*
G02*
X123689032Y-86801200I-287168J0D01*
G01*
G37*
G04 #@! TD*
G04 #@! TO.C,R1*
G36*
G01*
X119189032Y-135163700D02*
X118210968Y-135163700D01*
G75*
G02*
X117923800Y-134876532I0J287168D01*
G01*
X117923800Y-134273468D01*
G75*
G02*
X118210968Y-133986300I287168J0D01*
G01*
X119189032Y-133986300D01*
G75*
G02*
X119476200Y-134273468I0J-287168D01*
G01*
X119476200Y-134876532D01*
G75*
G02*
X119189032Y-135163700I-287168J0D01*
G01*
G37*
G36*
G01*
X119189032Y-136988700D02*
X118210968Y-136988700D01*
G75*
G02*
X117923800Y-136701532I0J287168D01*
G01*
X117923800Y-136098468D01*
G75*
G02*
X118210968Y-135811300I287168J0D01*
G01*
X119189032Y-135811300D01*
G75*
G02*
X119476200Y-136098468I0J-287168D01*
G01*
X119476200Y-136701532D01*
G75*
G02*
X119189032Y-136988700I-287168J0D01*
G01*
G37*
G04 #@! TD*
D13*
G04 #@! TO.C,J2*
X113500000Y-152200000D03*
X118500000Y-159700000D03*
X108500000Y-159700000D03*
X118500000Y-157200000D03*
X108500000Y-157200000D03*
D14*
X113500000Y-157200000D03*
X118500000Y-152200000D03*
X108500000Y-152200000D03*
G04 #@! TD*
G04 #@! TO.C,D1*
G36*
G01*
X127775650Y-81336300D02*
X128764350Y-81336300D01*
G75*
G02*
X129046200Y-81618150I0J-281850D01*
G01*
X129046200Y-82181850D01*
G75*
G02*
X128764350Y-82463700I-281850J0D01*
G01*
X127775650Y-82463700D01*
G75*
G02*
X127493800Y-82181850I0J281850D01*
G01*
X127493800Y-81618150D01*
G75*
G02*
X127775650Y-81336300I281850J0D01*
G01*
G37*
G36*
G01*
X127775650Y-79461300D02*
X128764350Y-79461300D01*
G75*
G02*
X129046200Y-79743150I0J-281850D01*
G01*
X129046200Y-80306850D01*
G75*
G02*
X128764350Y-80588700I-281850J0D01*
G01*
X127775650Y-80588700D01*
G75*
G02*
X127493800Y-80306850I0J281850D01*
G01*
X127493800Y-79743150D01*
G75*
G02*
X127775650Y-79461300I281850J0D01*
G01*
G37*
G04 #@! TD*
G04 #@! TO.C,D2*
G36*
G01*
X122705650Y-81336300D02*
X123694350Y-81336300D01*
G75*
G02*
X123976200Y-81618150I0J-281850D01*
G01*
X123976200Y-82181850D01*
G75*
G02*
X123694350Y-82463700I-281850J0D01*
G01*
X122705650Y-82463700D01*
G75*
G02*
X122423800Y-82181850I0J281850D01*
G01*
X122423800Y-81618150D01*
G75*
G02*
X122705650Y-81336300I281850J0D01*
G01*
G37*
G36*
G01*
X122705650Y-79461300D02*
X123694350Y-79461300D01*
G75*
G02*
X123976200Y-79743150I0J-281850D01*
G01*
X123976200Y-80306850D01*
G75*
G02*
X123694350Y-80588700I-281850J0D01*
G01*
X122705650Y-80588700D01*
G75*
G02*
X122423800Y-80306850I0J281850D01*
G01*
X122423800Y-79743150D01*
G75*
G02*
X122705650Y-79461300I281850J0D01*
G01*
G37*
G04 #@! TD*
G04 #@! TO.C,C1*
G36*
G01*
X133886900Y-142973800D02*
X134913100Y-142973800D01*
G75*
G02*
X135201200Y-143261900I0J-288100D01*
G01*
X135201200Y-143838100D01*
G75*
G02*
X134913100Y-144126200I-288100J0D01*
G01*
X133886900Y-144126200D01*
G75*
G02*
X133598800Y-143838100I0J288100D01*
G01*
X133598800Y-143261900D01*
G75*
G02*
X133886900Y-142973800I288100J0D01*
G01*
G37*
G36*
G01*
X133886900Y-141073800D02*
X134913100Y-141073800D01*
G75*
G02*
X135201200Y-141361900I0J-288100D01*
G01*
X135201200Y-141938100D01*
G75*
G02*
X134913100Y-142226200I-288100J0D01*
G01*
X133886900Y-142226200D01*
G75*
G02*
X133598800Y-141938100I0J288100D01*
G01*
X133598800Y-141361900D01*
G75*
G02*
X133886900Y-141073800I288100J0D01*
G01*
G37*
G04 #@! TD*
G04 #@! TO.C,D3*
G36*
G01*
X117605650Y-81336300D02*
X118594350Y-81336300D01*
G75*
G02*
X118876200Y-81618150I0J-281850D01*
G01*
X118876200Y-82181850D01*
G75*
G02*
X118594350Y-82463700I-281850J0D01*
G01*
X117605650Y-82463700D01*
G75*
G02*
X117323800Y-82181850I0J281850D01*
G01*
X117323800Y-81618150D01*
G75*
G02*
X117605650Y-81336300I281850J0D01*
G01*
G37*
G36*
G01*
X117605650Y-79461300D02*
X118594350Y-79461300D01*
G75*
G02*
X118876200Y-79743150I0J-281850D01*
G01*
X118876200Y-80306850D01*
G75*
G02*
X118594350Y-80588700I-281850J0D01*
G01*
X117605650Y-80588700D01*
G75*
G02*
X117323800Y-80306850I0J281850D01*
G01*
X117323800Y-79743150D01*
G75*
G02*
X117605650Y-79461300I281850J0D01*
G01*
G37*
G04 #@! TD*
G04 #@! TO.C,R4*
G36*
G01*
X118589032Y-84976200D02*
X117610968Y-84976200D01*
G75*
G02*
X117323800Y-84689032I0J287168D01*
G01*
X117323800Y-84085968D01*
G75*
G02*
X117610968Y-83798800I287168J0D01*
G01*
X118589032Y-83798800D01*
G75*
G02*
X118876200Y-84085968I0J-287168D01*
G01*
X118876200Y-84689032D01*
G75*
G02*
X118589032Y-84976200I-287168J0D01*
G01*
G37*
G36*
G01*
X118589032Y-86801200D02*
X117610968Y-86801200D01*
G75*
G02*
X117323800Y-86514032I0J287168D01*
G01*
X117323800Y-85910968D01*
G75*
G02*
X117610968Y-85623800I287168J0D01*
G01*
X118589032Y-85623800D01*
G75*
G02*
X118876200Y-85910968I0J-287168D01*
G01*
X118876200Y-86514032D01*
G75*
G02*
X118589032Y-86801200I-287168J0D01*
G01*
G37*
G04 #@! TD*
G04 #@! TO.C,Q1*
G36*
G01*
X114975000Y-136023800D02*
X115625000Y-136023800D01*
G75*
G02*
X115701200Y-136100000I0J-76200D01*
G01*
X115701200Y-137320000D01*
G75*
G02*
X115625000Y-137396200I-76200J0D01*
G01*
X114975000Y-137396200D01*
G75*
G02*
X114898800Y-137320000I0J76200D01*
G01*
X114898800Y-136100000D01*
G75*
G02*
X114975000Y-136023800I76200J0D01*
G01*
G37*
G36*
G01*
X114025000Y-133403800D02*
X114675000Y-133403800D01*
G75*
G02*
X114751200Y-133480000I0J-76200D01*
G01*
X114751200Y-134700000D01*
G75*
G02*
X114675000Y-134776200I-76200J0D01*
G01*
X114025000Y-134776200D01*
G75*
G02*
X113948800Y-134700000I0J76200D01*
G01*
X113948800Y-133480000D01*
G75*
G02*
X114025000Y-133403800I76200J0D01*
G01*
G37*
G36*
G01*
X115925000Y-133403800D02*
X116575000Y-133403800D01*
G75*
G02*
X116651200Y-133480000I0J-76200D01*
G01*
X116651200Y-134700000D01*
G75*
G02*
X116575000Y-134776200I-76200J0D01*
G01*
X115925000Y-134776200D01*
G75*
G02*
X115848800Y-134700000I0J76200D01*
G01*
X115848800Y-133480000D01*
G75*
G02*
X115925000Y-133403800I76200J0D01*
G01*
G37*
G04 #@! TD*
D10*
G04 #@! TO.C,J3*
X131180000Y-141160000D03*
X131180000Y-143700000D03*
X128640000Y-141160000D03*
X128640000Y-143700000D03*
X126100000Y-141160000D03*
G36*
G01*
X126950000Y-144626200D02*
X125250000Y-144626200D01*
G75*
G02*
X125173800Y-144550000I0J76200D01*
G01*
X125173800Y-142850000D01*
G75*
G02*
X125250000Y-142773800I76200J0D01*
G01*
X126950000Y-142773800D01*
G75*
G02*
X127026200Y-142850000I0J-76200D01*
G01*
X127026200Y-144550000D01*
G75*
G02*
X126950000Y-144626200I-76200J0D01*
G01*
G37*
G04 #@! TD*
G04 #@! TO.C,J4*
X118740000Y-141160000D03*
X118740000Y-143700000D03*
X116200000Y-141160000D03*
G36*
G01*
X117050000Y-144626200D02*
X115350000Y-144626200D01*
G75*
G02*
X115273800Y-144550000I0J76200D01*
G01*
X115273800Y-142850000D01*
G75*
G02*
X115350000Y-142773800I76200J0D01*
G01*
X117050000Y-142773800D01*
G75*
G02*
X117126200Y-142850000I0J-76200D01*
G01*
X117126200Y-144550000D01*
G75*
G02*
X117050000Y-144626200I-76200J0D01*
G01*
G37*
G04 #@! TD*
D15*
G36*
X128877932Y-104750200D02*
G01*
X128878200Y-104751200D01*
X128878200Y-104848800D01*
X128877200Y-104850532D01*
X128876200Y-104850800D01*
X127723800Y-104850800D01*
X127722068Y-104849800D01*
X127721800Y-104848800D01*
X127721800Y-104751200D01*
X127722800Y-104749468D01*
X127723800Y-104749200D01*
X128876200Y-104749200D01*
X128877932Y-104750200D01*
G37*
G36*
X134677932Y-104750200D02*
G01*
X134678200Y-104751200D01*
X134678200Y-104848800D01*
X134677200Y-104850532D01*
X134676200Y-104850800D01*
X133523800Y-104850800D01*
X133522068Y-104849800D01*
X133521800Y-104848800D01*
X133521800Y-104751200D01*
X133522800Y-104749468D01*
X133523800Y-104749200D01*
X134676200Y-104749200D01*
X134677932Y-104750200D01*
G37*
G36*
X134677932Y-104100200D02*
G01*
X134678200Y-104101200D01*
X134678200Y-104198800D01*
X134677200Y-104200532D01*
X134676200Y-104200800D01*
X133523800Y-104200800D01*
X133522068Y-104199800D01*
X133521800Y-104198800D01*
X133521800Y-104101200D01*
X133522800Y-104099468D01*
X133523800Y-104099200D01*
X134676200Y-104099200D01*
X134677932Y-104100200D01*
G37*
G36*
X128877932Y-104100200D02*
G01*
X128878200Y-104101200D01*
X128878200Y-104198800D01*
X128877200Y-104200532D01*
X128876200Y-104200800D01*
X127723800Y-104200800D01*
X127722068Y-104199800D01*
X127721800Y-104198800D01*
X127721800Y-104101200D01*
X127722800Y-104099468D01*
X127723800Y-104099200D01*
X128876200Y-104099200D01*
X128877932Y-104100200D01*
G37*
G36*
X134677932Y-103450200D02*
G01*
X134678200Y-103451200D01*
X134678200Y-103548800D01*
X134677200Y-103550532D01*
X134676200Y-103550800D01*
X133523800Y-103550800D01*
X133522068Y-103549800D01*
X133521800Y-103548800D01*
X133521800Y-103451200D01*
X133522800Y-103449468D01*
X133523800Y-103449200D01*
X134676200Y-103449200D01*
X134677932Y-103450200D01*
G37*
G36*
X128877932Y-103450200D02*
G01*
X128878200Y-103451200D01*
X128878200Y-103548800D01*
X128877200Y-103550532D01*
X128876200Y-103550800D01*
X127723800Y-103550800D01*
X127722068Y-103549800D01*
X127721800Y-103548800D01*
X127721800Y-103451200D01*
X127722800Y-103449468D01*
X127723800Y-103449200D01*
X128876200Y-103449200D01*
X128877932Y-103450200D01*
G37*
G36*
X134677932Y-102800200D02*
G01*
X134678200Y-102801200D01*
X134678200Y-102898800D01*
X134677200Y-102900532D01*
X134676200Y-102900800D01*
X133523800Y-102900800D01*
X133522068Y-102899800D01*
X133521800Y-102898800D01*
X133521800Y-102801200D01*
X133522800Y-102799468D01*
X133523800Y-102799200D01*
X134676200Y-102799200D01*
X134677932Y-102800200D01*
G37*
G36*
X128877932Y-102800200D02*
G01*
X128878200Y-102801200D01*
X128878200Y-102898800D01*
X128877200Y-102900532D01*
X128876200Y-102900800D01*
X127723800Y-102900800D01*
X127722068Y-102899800D01*
X127721800Y-102898800D01*
X127721800Y-102801200D01*
X127722800Y-102799468D01*
X127723800Y-102799200D01*
X128876200Y-102799200D01*
X128877932Y-102800200D01*
G37*
G36*
X128877932Y-102150200D02*
G01*
X128878200Y-102151200D01*
X128878200Y-102248800D01*
X128877200Y-102250532D01*
X128876200Y-102250800D01*
X127723800Y-102250800D01*
X127722068Y-102249800D01*
X127721800Y-102248800D01*
X127721800Y-102151200D01*
X127722800Y-102149468D01*
X127723800Y-102149200D01*
X128876200Y-102149200D01*
X128877932Y-102150200D01*
G37*
G36*
X134677932Y-102150200D02*
G01*
X134678200Y-102151200D01*
X134678200Y-102248800D01*
X134677200Y-102250532D01*
X134676200Y-102250800D01*
X133523800Y-102250800D01*
X133522068Y-102249800D01*
X133521800Y-102248800D01*
X133521800Y-102151200D01*
X133522800Y-102149468D01*
X133523800Y-102149200D01*
X134676200Y-102149200D01*
X134677932Y-102150200D01*
G37*
G36*
X134677932Y-101500200D02*
G01*
X134678200Y-101501200D01*
X134678200Y-101598800D01*
X134677200Y-101600532D01*
X134676200Y-101600800D01*
X133523800Y-101600800D01*
X133522068Y-101599800D01*
X133521800Y-101598800D01*
X133521800Y-101501200D01*
X133522800Y-101499468D01*
X133523800Y-101499200D01*
X134676200Y-101499200D01*
X134677932Y-101500200D01*
G37*
G36*
X128877932Y-101500200D02*
G01*
X128878200Y-101501200D01*
X128878200Y-101598800D01*
X128877200Y-101600532D01*
X128876200Y-101600800D01*
X127723800Y-101600800D01*
X127722068Y-101599800D01*
X127721800Y-101598800D01*
X127721800Y-101501200D01*
X127722800Y-101499468D01*
X127723800Y-101499200D01*
X128876200Y-101499200D01*
X128877932Y-101500200D01*
G37*
G36*
X134677932Y-100850200D02*
G01*
X134678200Y-100851200D01*
X134678200Y-100948800D01*
X134677200Y-100950532D01*
X134676200Y-100950800D01*
X133523800Y-100950800D01*
X133522068Y-100949800D01*
X133521800Y-100948800D01*
X133521800Y-100851200D01*
X133522800Y-100849468D01*
X133523800Y-100849200D01*
X134676200Y-100849200D01*
X134677932Y-100850200D01*
G37*
G36*
X128877932Y-100850200D02*
G01*
X128878200Y-100851200D01*
X128878200Y-100948800D01*
X128877200Y-100950532D01*
X128876200Y-100950800D01*
X127723800Y-100950800D01*
X127722068Y-100949800D01*
X127721800Y-100948800D01*
X127721800Y-100851200D01*
X127722800Y-100849468D01*
X127723800Y-100849200D01*
X128876200Y-100849200D01*
X128877932Y-100850200D01*
G37*
G36*
X134677932Y-100200200D02*
G01*
X134678200Y-100201200D01*
X134678200Y-100298800D01*
X134677200Y-100300532D01*
X134676200Y-100300800D01*
X133523800Y-100300800D01*
X133522068Y-100299800D01*
X133521800Y-100298800D01*
X133521800Y-100201200D01*
X133522800Y-100199468D01*
X133523800Y-100199200D01*
X134676200Y-100199200D01*
X134677932Y-100200200D01*
G37*
G36*
X128877932Y-100200200D02*
G01*
X128878200Y-100201200D01*
X128878200Y-100298800D01*
X128877200Y-100300532D01*
X128876200Y-100300800D01*
X127723800Y-100300800D01*
X127722068Y-100299800D01*
X127721800Y-100298800D01*
X127721800Y-100201200D01*
X127722800Y-100199468D01*
X127723800Y-100199200D01*
X128876200Y-100199200D01*
X128877932Y-100200200D01*
G37*
G36*
X134677932Y-99550200D02*
G01*
X134678200Y-99551200D01*
X134678200Y-99648800D01*
X134677200Y-99650532D01*
X134676200Y-99650800D01*
X133523800Y-99650800D01*
X133522068Y-99649800D01*
X133521800Y-99648800D01*
X133521800Y-99551200D01*
X133522800Y-99549468D01*
X133523800Y-99549200D01*
X134676200Y-99549200D01*
X134677932Y-99550200D01*
G37*
G36*
X128877932Y-99550200D02*
G01*
X128878200Y-99551200D01*
X128878200Y-99648800D01*
X128877200Y-99650532D01*
X128876200Y-99650800D01*
X127723800Y-99650800D01*
X127722068Y-99649800D01*
X127721800Y-99648800D01*
X127721800Y-99551200D01*
X127722800Y-99549468D01*
X127723800Y-99549200D01*
X128876200Y-99549200D01*
X128877932Y-99550200D01*
G37*
M02*
