M48
; DRILL file {KiCad (5.1.7)-1} date 10/30/20 10:20:03
; FORMAT={-:-/ absolute / inch / decimal}
; #@! TF.CreationDate,2020-10-30T10:20:03-04:00
; #@! TF.GenerationSoftware,Kicad,Pcbnew,(5.1.7)-1
; #@! TF.FileFunction,Plated,1,2,PTH
FMAT,2
INCH
T1C0.0100
T2C0.0394
T3C0.0472
T4C0.0669
T5C0.0787
T6C0.0984
%
G90
G05
T1
X4.3071Y-5.4134
X4.374Y-3.1693
X4.5Y-5.2205
X4.5236Y-3.5827
X4.7165Y-3.0787
X4.7362Y-3.6654
X4.7717Y-5.8819
X4.7874Y-5.2441
X4.9449Y-3.8189
X4.9803Y-3.3937
X5.0354Y-3.8189
X5.1014Y-3.9596
X5.1024Y-5.2677
X5.1102Y-4.0354
X5.1142Y-3.0748
X5.1181Y-3.6575
X5.1299Y-3.3937
X5.1457Y-3.9409
X5.1457Y-4.2362
X5.1811Y-3.9213
X5.2205Y-5.2677
X5.3071Y-4.3937
X5.315Y-3.7677
X5.3346Y-3.1378
X5.3346Y-3.2835
X5.3386Y-4.3622
X5.4055Y-3.748
X5.4252Y-3.7795
X5.4488Y-5.0276
X5.4528Y-4.315
X5.4764Y-3.8504
X5.4843Y-3.4213
X5.5748Y-3.3543
X5.5762Y-3.4606
T2
X5.2795Y-4.6945
X5.2795Y-4.7945
X5.2795Y-4.8945
X5.2795Y-4.9945
X5.2795Y-5.0945
X5.2795Y-5.1945
X5.0Y-4.7921
X5.0Y-4.8921
X4.6457Y-3.9291
X4.6457Y-4.0291
X4.6457Y-4.1291
X4.6457Y-4.2291
X4.7457Y-3.9291
X4.7457Y-4.0291
X4.7457Y-4.1291
X4.7457Y-4.2291
X4.5748Y-5.5575
X4.5748Y-5.6575
X4.6748Y-5.5575
X4.6748Y-5.6575
X4.9646Y-5.5575
X4.9646Y-5.6575
X5.0646Y-5.5575
X5.0646Y-5.6575
X5.1646Y-5.5575
X5.1646Y-5.6575
X5.6559Y-3.3362
X5.6559Y-3.4362
X5.6559Y-3.5362
X5.6559Y-3.6362
X5.6559Y-3.7362
X5.6559Y-3.8362
X5.6559Y-3.9362
X5.6559Y-4.0362
X5.6559Y-4.1362
X5.6559Y-4.2362
X5.6559Y-4.3362
X5.6559Y-4.4362
X5.6559Y-4.5362
X5.6559Y-4.6362
X5.6559Y-4.7362
X5.6559Y-4.8362
X5.6559Y-4.9362
X5.6559Y-5.0362
X5.6559Y-5.1362
X5.6559Y-5.2362
X5.7559Y-3.3362
X5.7559Y-3.4362
X5.7559Y-3.5362
X5.7559Y-3.6362
X5.7559Y-3.7362
X5.7559Y-3.8362
X5.7559Y-3.9362
X5.7559Y-4.0362
X5.7559Y-4.1362
X5.7559Y-4.2362
X5.7559Y-4.3362
X5.7559Y-4.4362
X5.7559Y-4.5362
X5.7559Y-4.6362
X5.7559Y-4.7362
X5.7559Y-4.8362
X5.7559Y-4.9362
X5.7559Y-5.0362
X5.7559Y-5.1362
X5.7559Y-5.2362
T3
X4.2717Y-6.189
X4.2717Y-6.2874
X4.4685Y-5.9921
X4.6654Y-6.189
X4.6654Y-6.2874
X4.874Y-6.189
X4.874Y-6.2874
X5.0709Y-5.9921
X5.2677Y-6.189
X5.2677Y-6.2874
T4
X4.2717Y-5.9921
X4.4685Y-6.189
X4.6654Y-5.9921
X4.874Y-5.9921
X5.0709Y-6.189
X5.2677Y-5.9921
T6
X4.3504Y-5.748
X5.3346Y-3.5433
T5
G00X4.5098Y-3.1358
M15
G01X4.5098Y-3.124
M16
G05
G00X5.1909Y-3.1358
M15
G01X5.1909Y-3.124
M16
G05
T0
M30
